# xmcd CD database file
#
# Track frame offsets:
#	150
#	11649
#	26441
#	40757
#	54767
#	69247
#	82891
#	94058
#	107639
#	122754
#
# Disc length: 1835 seconds
#
# Revision: 1
# Processed by: cddbd v1.5.2PL0 Copyright (c) Steve Scherf et al.
# Submitted via: CDex 1.70beta2
#
DISCID=6b07290a
DTITLE=Various Artist - Sirens Of Swing [CD2 of 2)
DYEAR=2005
DGENRE=Jazz
TTITLE0=Pearl Bailey With Cootie Williams And His Orch - Tess' Torch Song (I Had A Man)
TTITLE1=Billie Holiday With Camarata's Orch - Lover Man (Oh Where Can You Be)
TTITLE2=Sarah Vaughan With Ted Dale's Orch - The One I Love Belongs To Somebody Else
TTITLE3=Peggy Lee With Benny Goodman And His Orch - My Old Flame
TTITLE4=Kitty Kallen With Harry James And His Orch - I'm Beginning To See The Light
TTITLE5=Jo Stafford With Paul Weston's Orch - I Remember You
TTITLE6=Ella Fitzgerald And Her Orch - Baby Won't You Please Come Home
TTITLE7=Dinah Washington With Chubby Jackson's Orch - Stairway To The Stars
TTITLE8=Lena Horne With Horace Henderson's Orch - One For My Baby
TTITLE9=Doris Day With Les Brown And His Orch - My Dreams Are Getting Better All The Time
EXTD=YEAR: 2005
EXTT0=
EXTT1=
EXTT2=
EXTT3=
EXTT4=
EXTT5=
EXTT6=
EXTT7=
EXTT8=
EXTT9=
PLAYORDER=
